<?xml version="1.0" encoding="utf-8"?>
<!-- Generator: Adobe Illustrator 24.3.0, SVG Export Plug-In . SVG Version: 6.00 Build 0)  -->
<svg version="1.1" id="Слой_1" xmlns="http://www.w3.org/2000/svg" xmlns:xlink="http://www.w3.org/1999/xlink" x="0px" y="0px"
	 viewBox="0 0 123.5 62.3" style="enable-background:new 0 0 123.5 62.3;" xml:space="preserve">
<path d="M20.3,23.8v5h-0.4l-0.1-4.5h-15l-0.1,4.5H4.3v-5H5c0.5,0,0.9-0.2,1.2-0.5c0.3-0.3,0.5-0.7,0.6-1.2c0.1-0.5,0.2-1.2,0.4-2
	l0.1-0.7l2-14.2h8.6v18.6H20.3z M17.4,5.6H9.7L7.8,19.3l-0.1,0.5c-0.2,1.3-0.4,2.2-0.6,2.8c-0.2,0.6-0.6,1-1.1,1.2h11.4V5.6z"/>
<path d="M38.3,10.1v14.2h-0.5V10.8l-5.7,11.8v0h-0.4l-5.8-11.8v13.5h-0.5V10.1H26L31.9,22l5.9-11.9H38.3z"/>
<path d="M55.3,10.1v14.2h-0.5V10.8l-9.3,13.4H45V10.1h0.5v13.4l9.3-13.4H55.3z"/>
<path d="M70.9,10.5h-5.6v13.7h-0.5V10.5h-5.6v-0.5h11.7V10.5z"/>
<path d="M84.1,11.6c1,1.3,1.4,2.9,1.4,4.9v1.3c0,1.3-0.2,2.4-0.7,3.4c-0.5,1-1.1,1.9-2,2.4c-0.9,0.6-1.9,0.9-3.1,0.9
	c-1.8,0-3.3-0.7-4.5-2.1v7.2h-0.5V9.8h0.4l0.1,2.6c0.6-0.9,1.3-1.6,2.1-2c0.8-0.5,1.8-0.7,2.9-0.7C81.8,9.7,83.1,10.4,84.1,11.6z
	 M85,16.6c0-1.9-0.4-3.5-1.3-4.6c-0.9-1.2-2.1-1.7-3.6-1.7c-1.1,0-2,0.3-2.8,0.8c-0.8,0.5-1.5,1.3-2,2.2v8.7
	c0.6,0.7,1.2,1.3,1.9,1.7c0.7,0.4,1.6,0.6,2.5,0.6c1.1,0,2-0.3,2.8-0.8c0.8-0.6,1.4-1.3,1.9-2.3c0.4-1,0.7-2,0.7-3.2V16.6z"/>
<path d="M101.5,10.1v14.2H101V10.8l-9.3,13.4h-0.5V10.1h0.5v13.4l9.3-13.4H101.5z"/>
<path d="M118.5,10.1v14.2H118V10.8l-9.3,13.4h-0.5V10.1h0.5v13.4l9.3-13.4H118.5z M110.1,5.2l0.4-0.1c0.6,1.1,1.6,1.6,2.9,1.6
	c1.3,0,2.3-0.5,2.9-1.6l0.4,0.1c-0.7,1.3-1.8,1.9-3.3,1.9C111.9,7.1,110.8,6.4,110.1,5.2z"/>
<path d="M15.4,55.3c-1.1-1.3-1.7-3-1.7-5.1v-5c0-1.5,0.3-2.8,0.8-3.9s1.3-2,2.3-2.7c1-0.6,2.2-1,3.6-1c1.1,0,2,0.2,2.8,0.5
	c0.8,0.4,1.5,0.9,2.1,1.5L25,39.9c-0.6-0.6-1.3-1.1-2-1.4c-0.7-0.3-1.6-0.5-2.6-0.5c-2,0-3.5,0.6-4.6,1.9c-1.1,1.3-1.6,3-1.6,5.2v5
	c0,2,0.5,3.7,1.6,4.9s2.5,1.8,4.5,1.8c1.8,0,3.3-0.6,4.5-1.7l0.3,0.3c-1.3,1.2-2.9,1.8-4.8,1.8C18.2,57.2,16.6,56.6,15.4,55.3z"/>
<path d="M37.6,43.2c0.9,0.6,1.6,1.4,2,2.4c0.5,1,0.7,2.2,0.7,3.4v1.3c0,2-0.5,3.7-1.5,5c-1,1.3-2.5,1.9-4.4,1.9
	c-1.9,0-3.3-0.6-4.4-1.9c-1-1.3-1.5-2.9-1.5-5v-1.3c0-1.3,0.2-2.4,0.7-3.4c0.5-1,1.1-1.8,2-2.4c0.9-0.6,2-0.9,3.2-0.9
	C35.7,42.4,36.7,42.7,37.6,43.2z M30.4,44.5c-0.9,1.2-1.4,2.7-1.4,4.5v1.2c0,2,0.5,3.6,1.4,4.7c0.9,1.2,2.3,1.8,4,1.8
	c1.7,0,3.1-0.6,4-1.8c1-1.2,1.4-2.8,1.4-4.7v-1.2c0-1.9-0.5-3.4-1.4-4.5c-1-1.2-2.3-1.7-4-1.7C32.7,42.8,31.4,43.4,30.4,44.5z"/>
<path d="M50.3,49.4h-3.8v7.5H46V42.7h0.5v6.2h3.8l4.3-6.2h0.5l-4.4,6.4l5.3,7.8h-0.5L50.3,49.4z"/>
<path d="M68,43.2c0.9,0.6,1.6,1.4,2,2.4c0.5,1,0.7,2.2,0.7,3.4v1.3c0,2-0.5,3.7-1.5,5c-1,1.3-2.5,1.9-4.4,1.9
	c-1.9,0-3.3-0.6-4.4-1.9c-1-1.3-1.5-2.9-1.5-5v-1.3c0-1.3,0.2-2.4,0.7-3.4c0.5-1,1.1-1.8,2-2.4c0.9-0.6,2-0.9,3.2-0.9
	C66,42.4,67.1,42.7,68,43.2z M60.8,44.5c-0.9,1.2-1.4,2.7-1.4,4.5v1.2c0,2,0.5,3.6,1.4,4.7c0.9,1.2,2.3,1.8,4,1.8
	c1.7,0,3.1-0.6,4-1.8c1-1.2,1.4-2.8,1.4-4.7v-1.2c0-1.9-0.5-3.4-1.4-4.5c-1-1.2-2.3-1.7-4-1.7C63.1,42.8,61.7,43.4,60.8,44.5z"/>
<path d="M86,42.7v14.2h-0.5V43.1H79l-1.1,8c-0.3,2-0.6,3.5-1.2,4.5c-0.5,1-1.1,1.5-1.9,1.5c-0.3,0-0.6-0.1-0.9-0.2v-0.4
	c0.3,0.1,0.6,0.2,0.8,0.2c1.3,0,2.2-1.9,2.7-5.6l1.1-8.4H86z"/>
<path d="M100.7,43.2c0.9,0.6,1.6,1.4,2,2.4c0.5,1,0.7,2.2,0.7,3.4v1.3c0,2-0.5,3.7-1.6,5c-1,1.3-2.5,1.9-4.4,1.9
	c-1.9,0-3.3-0.6-4.4-1.9c-1-1.3-1.6-2.9-1.6-5v-1.3c0-1.3,0.2-2.4,0.7-3.4c0.5-1,1.1-1.8,2-2.4c0.9-0.6,2-0.9,3.2-0.9
	C98.7,42.4,99.8,42.7,100.7,43.2z M93.5,44.5c-0.9,1.2-1.4,2.7-1.4,4.5v1.2c0,2,0.5,3.6,1.4,4.7c0.9,1.2,2.3,1.8,4,1.8
	c1.7,0,3.1-0.6,4-1.8c1-1.2,1.4-2.8,1.4-4.7v-1.2c0-1.9-0.5-3.4-1.4-4.5c-1-1.2-2.3-1.7-4-1.7C95.7,42.8,94.4,43.4,93.5,44.5z"/>
<path d="M118.2,50.6c0.7,0.5,1,1.3,1,2.2v1c0,2.1-1.7,3.1-5.1,3.1H109V42.7h5.4c1.3,0,2.3,0.3,3.1,0.8c0.8,0.6,1.2,1.3,1.2,2.3v0.8
	c0,0.8-0.3,1.4-0.8,2c-0.5,0.5-1.2,0.9-2,1C116.8,49.7,117.5,50,118.2,50.6z M109.5,43.1v6.3h5.6c0.9,0,1.7-0.3,2.3-0.8
	c0.6-0.5,0.9-1.2,0.9-2v-0.8c0-0.9-0.4-1.6-1.1-2.1c-0.7-0.5-1.6-0.7-2.8-0.7H109.5z M118.7,52.8c0-0.9-0.3-1.6-1-2.1
	c-0.7-0.5-1.5-0.8-2.5-0.8h-5.6v6.6h4.6c1.5,0,2.7-0.2,3.4-0.7c0.8-0.4,1.1-1.1,1.1-2V52.8z"/>
</svg>
