<?xml version="1.0" encoding="utf-8"?>
<!-- Generator: Adobe Illustrator 24.3.0, SVG Export Plug-In . SVG Version: 6.00 Build 0)  -->
<svg version="1.1" id="Слой_1" xmlns="http://www.w3.org/2000/svg" xmlns:xlink="http://www.w3.org/1999/xlink" x="0px" y="0px"
	 viewBox="0 0 123.5 62.3" style="enable-background:new 0 0 123.5 62.3;" xml:space="preserve">
<g>
	<path d="M23.3,22.8V27H23l-0.1-3.8H10.3L10.2,27H9.9v-4.2h0.6c0.4,0,0.8-0.1,1-0.4c0.2-0.3,0.4-0.6,0.5-1c0.1-0.4,0.2-1,0.3-1.7
		l0.1-0.5l1.7-11.9h7.2v15.6H23.3z M20.9,7.6h-6.5L12.8,19l-0.1,0.5c-0.1,1.1-0.3,1.9-0.5,2.4c-0.2,0.5-0.5,0.8-0.9,1h9.6V7.6z"/>
	<path d="M38.3,11.3v11.9H38V11.9l-4.8,9.8v0h-0.4L28,11.9v11.3h-0.4V11.3h0.5l4.9,10l4.9-10H38.3z"/>
	<path d="M52.6,11.3v11.9h-0.4V11.9l-7.8,11.2H44V11.3h0.4v11.2l7.8-11.2H52.6z"/>
	<path d="M65.6,11.7h-4.7v11.5h-0.4V11.7h-4.7v-0.4h9.8V11.7z"/>
	<path d="M76.6,12.6c0.8,1.1,1.2,2.4,1.2,4.1v1c0,1-0.2,2-0.6,2.9c-0.4,0.9-1,1.5-1.7,2c-0.7,0.5-1.6,0.8-2.6,0.8
		c-1.5,0-2.8-0.6-3.8-1.8v6.1h-0.4V11.1h0.3l0,2.2c0.5-0.7,1.1-1.3,1.8-1.7c0.7-0.4,1.5-0.6,2.4-0.6C74.8,11,75.8,11.6,76.6,12.6z
		 M77.4,16.7c0-1.6-0.4-2.9-1.1-3.9c-0.7-1-1.7-1.4-3-1.4c-0.9,0-1.7,0.2-2.4,0.6c-0.7,0.4-1.3,1-1.7,1.9v7.3c0.5,0.6,1,1.1,1.6,1.4
		c0.6,0.3,1.3,0.5,2.1,0.5c0.9,0,1.7-0.2,2.4-0.7c0.7-0.5,1.2-1.1,1.6-1.9c0.4-0.8,0.5-1.7,0.5-2.7V16.7z"/>
	<path d="M91.2,11.3v11.9h-0.4V11.9L83,23.2h-0.4V11.3H83v11.2l7.8-11.2H91.2z"/>
	<path d="M105.4,11.3v11.9H105V11.9l-7.8,11.2h-0.4V11.3h0.4v11.2l7.8-11.2H105.4z M98.4,7.2l0.3-0.1c0.5,0.9,1.3,1.3,2.4,1.3
		c1.1,0,1.9-0.4,2.4-1.3l0.3,0.1c-0.6,1-1.5,1.6-2.7,1.6C99.9,8.8,99,8.3,98.4,7.2z"/>
	<path d="M19.2,49.1c-1-1.1-1.4-2.5-1.4-4.3v-4.2c0-1.2,0.2-2.3,0.7-3.3s1.1-1.7,1.9-2.2s1.8-0.8,3-0.8c0.9,0,1.7,0.2,2.3,0.5
		c0.6,0.3,1.2,0.7,1.7,1.3l-0.2,0.3c-0.5-0.5-1-0.9-1.6-1.2c-0.6-0.3-1.3-0.4-2.2-0.4c-1.6,0-2.9,0.5-3.8,1.6
		c-0.9,1.1-1.4,2.5-1.4,4.3v4.2c0,1.7,0.4,3.1,1.3,4.1s2.1,1.5,3.8,1.5c1.5,0,2.8-0.5,3.8-1.4l0.2,0.3c-1.1,1-2.4,1.5-4,1.5
		C21.5,50.8,20.2,50.2,19.2,49.1z"/>
	<path d="M37.8,39.1c0.7,0.5,1.3,1.1,1.7,2s0.6,1.8,0.6,2.9v1c0,1.7-0.4,3.1-1.3,4.2c-0.9,1.1-2.1,1.6-3.7,1.6
		c-1.6,0-2.8-0.5-3.6-1.6c-0.9-1.1-1.3-2.5-1.3-4.2v-1c0-1.1,0.2-2,0.6-2.9s0.9-1.5,1.7-2c0.7-0.5,1.6-0.7,2.7-0.7
		C36.2,38.3,37.1,38.6,37.8,39.1z M31.8,40.1c-0.8,1-1.2,2.2-1.2,3.8v1c0,1.7,0.4,3,1.2,4c0.8,1,1.9,1.5,3.3,1.5s2.6-0.5,3.4-1.5
		c0.8-1,1.2-2.3,1.2-3.9v-1c0-1.6-0.4-2.8-1.2-3.8c-0.8-1-1.9-1.4-3.4-1.4S32.6,39.2,31.8,40.1z"/>
	<path d="M48.4,44.2h-3.2v6.3h-0.4V38.6h0.4v5.2h3.2l3.6-5.2h0.5L48.7,44l4.4,6.5h-0.5L48.4,44.2z"/>
	<path d="M63.2,39.1c0.7,0.5,1.3,1.1,1.7,2s0.6,1.8,0.6,2.9v1c0,1.7-0.4,3.1-1.3,4.2c-0.9,1.1-2.1,1.6-3.7,1.6
		c-1.6,0-2.8-0.5-3.6-1.6c-0.9-1.1-1.3-2.5-1.3-4.2v-1c0-1.1,0.2-2,0.6-2.9s0.9-1.5,1.7-2c0.7-0.5,1.6-0.7,2.7-0.7
		C61.6,38.3,62.4,38.6,63.2,39.1z M57.2,40.1c-0.8,1-1.2,2.2-1.2,3.8v1c0,1.7,0.4,3,1.2,4c0.8,1,1.9,1.5,3.3,1.5s2.6-0.5,3.4-1.5
		c0.8-1,1.2-2.3,1.2-3.9v-1c0-1.6-0.4-2.8-1.2-3.8c-0.8-1-1.9-1.4-3.4-1.4S57.9,39.2,57.2,40.1z"/>
	<path d="M78.2,38.6v11.9h-0.4V39h-5.4l-0.9,6.7c-0.2,1.7-0.5,2.9-1,3.8c-0.4,0.8-1,1.3-1.6,1.3c-0.3,0-0.5-0.1-0.8-0.2v-0.3
		c0.2,0.1,0.5,0.2,0.7,0.2c1.1,0,1.8-1.6,2.2-4.7l1-7H78.2z"/>
	<path d="M90.5,39.1c0.7,0.5,1.3,1.1,1.7,2s0.6,1.8,0.6,2.9v1c0,1.7-0.4,3.1-1.3,4.2c-0.9,1.1-2.1,1.6-3.7,1.6
		c-1.6,0-2.8-0.5-3.6-1.6c-0.9-1.1-1.3-2.5-1.3-4.2v-1c0-1.1,0.2-2,0.6-2.9s0.9-1.5,1.7-2c0.7-0.5,1.6-0.7,2.7-0.7
		C88.9,38.3,89.8,38.6,90.5,39.1z M84.5,40.1c-0.8,1-1.2,2.2-1.2,3.8v1c0,1.7,0.4,3,1.2,4c0.8,1,1.9,1.5,3.3,1.5s2.6-0.5,3.4-1.5
		c0.8-1,1.2-2.3,1.2-3.9v-1c0-1.6-0.4-2.8-1.2-3.8c-0.8-1-1.9-1.4-3.4-1.4S85.3,39.2,84.5,40.1z"/>
	<path d="M105.2,45.2c0.5,0.5,0.8,1.1,0.8,1.9v0.8c0,1.7-1.4,2.6-4.2,2.6h-4.3V38.6h4.5c1.1,0,1.9,0.2,2.6,0.7c0.7,0.5,1,1.1,1,2V42
		c0,0.7-0.2,1.2-0.7,1.7c-0.4,0.5-1,0.7-1.7,0.8C104,44.5,104.6,44.7,105.2,45.2z M97.9,39v5.3h4.7c0.8,0,1.4-0.2,1.9-0.7
		c0.5-0.4,0.7-1,0.7-1.6v-0.7c0-0.8-0.3-1.3-0.9-1.7S103,39,102,39H97.9z M105.6,47c0-0.8-0.3-1.4-0.9-1.8s-1.3-0.6-2.1-0.6h-4.7
		v5.5h3.9c1.3,0,2.2-0.2,2.9-0.5c0.6-0.4,0.9-0.9,0.9-1.7V47z"/>
</g>
</svg>
